<svg xmlns="http://www.w3.org/2000/svg" viewBox="0 0 380.39 388.85"><defs><style>.cls-1{fill:#fff;}.cls-2{fill:#00afff;}</style></defs><g id="Capa_2" data-name="Capa 2"><g id="Capa_1-2" data-name="Capa 1"><path class="cls-1" d="M376.25,244.77c-2.36,4.62-6.71,7.12-10.77,9.86-5.42,3.67-11,7-16.5,10.65a9.73,9.73,0,0,0-4.53,9.23c.45,5.9,1.37,11.77,1.79,17.67.32,4.54.7,9.19.12,13.66-1.2,9.2-6.93,14.91-15.77,17-6,1.41-12.21,1.85-18.32,2.73-3.36.49-6.74.89-10.08,1.54a10.32,10.32,0,0,0-8,6.92c-2.26,6-4.12,12.24-6.58,18.19-2.14,5.18-4.19,10.42-8.65,14.37a19.05,19.05,0,0,1-17.27,4.56c-5.5-1.12-10.82-3.14-16.21-4.82-3.5-1.1-7-2.26-10.47-3.44-4.9-1.66-9-.28-12.55,3.21-4.73,4.67-9.31,9.5-14.15,14.05s-10,8.25-16.9,8.67c-8.15.49-14.22-3.76-19.74-9-4.56-4.33-8.93-8.85-13.34-13.34-4-4.05-8.56-5.31-14-3.37-6.34,2.25-12.68,4.5-19.08,6.58-5.17,1.69-10.53,2.8-15.89,1.21s-9.83-4.56-12.11-9.53c-3.77-8.21-7.12-16.64-10.07-25.18-2.26-6.56-6.77-9.3-13.19-10S61,325.06,54.5,324a34.39,34.39,0,0,1-10.41-3.45c-8.51-4.54-11-12.4-10.39-21.43.41-6.16,1.33-12.28,1.91-18.43a65.52,65.52,0,0,0,.26-7.8,8.8,8.8,0,0,0-4-7.27c-4.9-3.32-10-6.32-14.88-9.7-3.95-2.77-8.16-5.45-11.35-9-6.8-7.52-7.32-16.18-2-25.67a153,153,0,0,1,9.69-15.51c5.46-7.49,5.84-14.53.21-22.17a134.72,134.72,0,0,1-9.9-16C-2.73,155.92-.62,145.83,10,137.9a163.09,163.09,0,0,1,17.87-11.49c7.37-4.14,8.91-10.25,7.91-18A183.91,183.91,0,0,1,33.9,84.86,17.81,17.81,0,0,1,44.66,68.1a43.63,43.63,0,0,1,11.28-3.34C63,63.58,70.18,62.93,77.3,62a10.22,10.22,0,0,0,8.79-7c2.43-6.46,4.54-13,7.08-19.46a45,45,0,0,1,5.06-9.76c5.49-7.65,13.25-10,22.14-7.7,6.59,1.68,13,4.17,19.44,6.28,2.05.67,4.11,1.26,6.17,1.89,3.37,1.05,6.52.12,9.66-1l9.17,9.15c-2.3,1.58-4.41,3.62-6.94,4.65-6.68,2.72-13.4,1.47-20-.69-7.07-2.31-14.11-4.7-21.21-6.91a6.08,6.08,0,0,0-7.74,3.28c-1.94,3.92-3.51,8-5.08,12.12-1.74,4.52-3.1,9.19-5,13.65C94.55,70.84,86.14,75.3,75.46,76.46c-7.13.78-14.28,1.54-21.35,2.76-4.91.86-6.36,3-6.6,8.06a21.4,21.4,0,0,0,0,3.49c.66,5.89,1.37,11.77,2.06,17.65C51,119.93,48,129.64,37.81,136.22c-5.66,3.64-11.44,7.11-17.07,10.81-7.8,5.13-8.53,8.81-3.58,16.71,3.48,5.55,7,11.06,10.39,16.69,5.5,9.22,5.53,18.6.13,27.85-3.39,5.8-7.12,11.41-10.64,17.15-4.8,7.8-4,11.48,3.71,16.47,5,3.22,10,6.31,15.1,9.38,11.08,6.71,15.42,16.53,13.73,29.24-.74,5.52-1.51,11-1.94,16.58-.8,10.18,1.17,12.45,11.48,13.66,6.33.75,12.7,1.19,19,2.13,9.18,1.37,16.41,5.76,20.24,14.57,1.85,4.27,3.22,8.73,5,13.05,2,5,4,9.95,6.42,14.71a5.46,5.46,0,0,0,4.27,2.4,40.54,40.54,0,0,0,9.39-1.89c7.29-2.21,14.43-4.93,21.78-6.88a19.82,19.82,0,0,1,16.51,2.93,80.29,80.29,0,0,1,9.33,7.68c4.67,4.32,9,9.05,13.79,13.2,3.86,3.34,6.82,3.36,10.64.06,5-4.32,9.45-9.33,14.44-13.69A66.42,66.42,0,0,1,222,350.19c6.36-3.39,13.17-1.95,19.67.13s12.64,4.64,19.08,6.56c7.14,2.13,9.85.76,12.6-6.12,2.17-5.4,4.16-10.9,5.82-16.48,4.12-13.77,13.18-21.09,27.53-22a166.79,166.79,0,0,0,16.86-1.85c8.32-1.42,10.24-4.2,9.35-12.6-.67-6.25-1.53-12.48-2.15-18.73-.81-8.19.42-16,6.65-21.88A86.42,86.42,0,0,1,349,248.52c6.14-4.11,13.27-6.89,17.56-13.41Z"/><path class="cls-1" d="M376.25,244.77l-9.68-9.66c-1.14-3.35-1.84-7-3.52-10-3.41-6.2-7.55-12-11-18.18-3.69-6.56-4.62-13.65-1.73-20.76a97.75,97.75,0,0,1,6.05-11.67c2.85-5,6.17-9.69,8.82-14.77,2.37-4.55,1.71-7.27-2.47-10.25-5.48-3.9-11.29-7.31-16.92-11-6.64-4.35-13.09-9.17-14.33-17.61-.79-5.41-.33-11-.09-16.57.26-6.26,1-12.49,1.32-18.75.15-3.22-2.09-5-4.95-5.94a22.46,22.46,0,0,0-4.17-1c-6.15-.76-12.3-1.52-18.46-2.13-11-1.1-19.55-5.84-23.86-16.51-1.94-4.82-3.38-9.85-5.23-14.71a82.84,82.84,0,0,0-4.59-10.58c-1.8-3.28-4.14-4.21-7.76-3.13-7.21,2.15-14.33,4.59-21.47,7-10.68,3.57-20.52,2.8-29-5.41-1.29-1.25-2.64-2.43-3.92-3.7-4.08-4-8-8.28-12.27-12.1-5.09-4.53-8.63-4.5-13.72.11-4.72,4.28-9,9-13.63,13.41a44.38,44.38,0,0,1-4.85,3.59l-9.17-9.15c1.56-1.56,3.11-3.14,4.7-4.67,5.44-5.21,10.48-10.94,16.44-15.47,9.77-7.45,20-6.66,29.14,1.57,4.87,4.38,9.34,9.19,14.05,13.76a53.57,53.57,0,0,0,5.27,4.6c2.92,2.16,6.29,2.07,9.55,1.07,5-1.54,9.81-3.47,14.79-5a96,96,0,0,1,13.25-3.45c8.67-1.36,15.68,1.91,20.14,9.4,2.68,4.51,4.46,9.56,6.43,14.46,1.47,3.66,2.66,7.44,3.84,11.2,2,6.25,6.27,9.24,12.67,9.87,7.24.7,14.49,1.43,21.65,2.66,8.34,1.43,15,5.47,18,14,2,5.76,1.4,11.71.74,17.62-.55,4.9-1.18,9.79-1.82,14.67-.83,6.25,1.63,10.79,6.95,14,5,3,10,6.06,14.85,9.27a49.05,49.05,0,0,1,7.39,5.82c7.54,7.41,8.85,16.64,3.53,26.36-3.32,6.06-7.27,11.76-10.81,17.69a25.12,25.12,0,0,0-3.3,7,10.57,10.57,0,0,0,.46,6.71c2.92,5.64,6.35,11,9.69,16.44s6.59,10.81,7,17.29C380.54,236.8,379.72,241.25,376.25,244.77Z"/><path class="cls-1" d="M326.41,194.52c.08,75.63-62,136.76-137.5,136.1C114.55,330,53.19,268.79,54,193c.79-74,60.52-133.29,133.21-134.69A136.14,136.14,0,0,1,326.41,194.52Zm-13.82-.11C312.61,127,257.37,71.56,189,72.17c-66.37.6-121.38,54.76-121.16,122.76.21,67.35,55.36,121.93,122.49,121.79C257.7,316.59,312.6,261.84,312.59,194.41Z"/><path class="cls-2" d="M248.21,125,278,155.09,168.67,264.17c-19.24-19.24-38.66-38.65-58-58l30.61-30.34,28,28.35Z"/></g></g></svg>