<svg xmlns="http://www.w3.org/2000/svg" viewBox="0 0 417.77 414.33"><defs><style>.cls-1{fill:#fff;}.cls-2{fill:#00afff;}</style></defs><g id="Capa_2" data-name="Capa 2"><g id="Capa_1-2" data-name="Capa 1"><path class="cls-1" d="M183.64,221.24H159.23c-16.93,0-33.87-.08-50.8.06-4.45,0-8.06-1.07-10.14-5.16s-1-7.74,1.58-11.33c9.35-12.87,18.57-25.83,27.85-38.75q35.82-49.86,71.61-99.74c3-4.15,6.37-6.12,11.57-6.08,23.45.18,46.9.14,70.34,0,4.59,0,8.38,1.09,10.52,5.34s.75,8-1.9,11.69Q264,113.18,238.18,149.16c-1.08,1.5-2.11,3-3.64,5.25,2.11.11,3.6.25,5.08.25h64.7c1.16,0,2.31,0,3.47,0,5.2-.12,10.07.67,12.17,6.24s-.89,9.49-5,13.09Q216.1,260.66,117.42,347.55c-6.35,5.61-16,3.79-17.15-4.35-.41-2.88.94-6.62,2.7-9.11C120.52,309.3,138.32,284.69,156,260q12.41-17.26,24.79-34.54C181.64,224.36,182.37,223.17,183.64,221.24ZM125.88,202h5.64c23,0,46,0,69,0,4.51,0,8.44.92,10.63,5.19s.89,8.26-1.88,12.08c-12.73,17.56-25.33,35.21-38,52.84-.69,1-1.25,2-1.88,3l.47.33L285.16,174.21c-23.29,0-45.27-.05-67.25,0-4.79,0-9-.8-11.32-5.51-2.15-4.45-.55-8.25,2.19-12q26.43-36.56,52.66-73.27c.79-1.1,1.47-2.27,2.48-3.85-15.82,0-31,.07-46.17-.07a6.8,6.8,0,0,0-6.35,3.31q-28,39.19-56.14,78.24C145.65,174.42,136.06,187.8,125.88,202Z"/><path class="cls-1" d="M214,414.33c-30.29,0-54.63-4.33-78.18-13.14-3.84-1.43-6.55-3.66-7.28-7.79-1.39-7.83,5.55-12.9,13.65-10.66,13.61,3.77,27.2,8.3,41.11,10.22,51.42,7.11,98.39-5,139.72-36.44,43.95-33.39,69.29-78.07,74.39-133,5.47-59-13.64-109.84-55.05-152.24-3-3.07-5.32-6.2-4.2-10.7,1.93-7.7,10.82-9.93,16.78-4.15A202.58,202.58,0,0,1,392.46,106c64.86,120.3-.45,268.65-133,302.15C242.84,412.38,225.94,414.38,214,414.33Z"/><path class="cls-1" d="M0,205.7c.1-98,68.78-183.26,164.41-204.06,2.54-.55,5.11-1,7.67-1.43C178-.85,182.87,2.15,184,7.5s-1.9,10.37-7.81,11.53c-14.37,2.84-28.49,6.49-41.85,12.55-61.62,27.94-99.86,75-111.66,141.59-10.81,61,6,115,47.48,161.18,4.61,5.13,4.78,10.91.3,14.93-4.26,3.82-10.17,3.22-14.59-1.64C21.25,309.59,2.61,264.93.36,213.49.25,210.89.12,208.3,0,205.7Z"/><path class="cls-2" d="M209,362.77c-8.5-.87-17-1.5-25.43-2.68-6.2-.86-9.4-5.68-8.29-11.44,1-5.32,5.9-8.44,11.79-7.55,75.46,11.45,144.49-37.7,157.22-113,7.21-42.68-4.48-80.69-32.67-113.57a36.29,36.29,0,0,1-3.06-3.65,9.6,9.6,0,0,1,1.88-12.55c4.06-3.41,9.67-3.5,13.22.79,6.62,8,13.4,16,18.86,24.79,58.28,93.82,1.1,218.71-108,236.18C226.11,361.45,217.57,361.9,209,362.77Z"/><path class="cls-2" d="M125.25,93.65c-2,2.66-3.5,5.77-5.92,7.91C93.86,124.09,78.07,152,73.15,185.64,68.25,219.07,75,250.29,92.91,279a18,18,0,0,1,2.53,5.44,9.58,9.58,0,0,1-17.59,6.84A199.15,199.15,0,0,1,66,269.68C37.61,206,54,132.64,106.65,86.93c3.67-3.18,7.51-5,12.24-2.71C122.48,86,124.23,88.94,125.25,93.65Z"/></g></g></svg>