<svg xmlns="http://www.w3.org/2000/svg" viewBox="0 0 424.58 414.33"><defs><style>.cls-1{fill:#fff;}.cls-2{fill:#00afff;}</style></defs><g id="Capa_2" data-name="Capa 2"><g id="Capa_1-2" data-name="Capa 1"><path class="cls-1" d="M127.64,47.41c0-8.14.11-16.29,0-24.43-.09-4.79,1.67-8,6.41-9.4,15.22-4.41,30.43-8.87,45.67-13.2,4.83-1.37,7.79,1.07,10,5.24,6.08,11.33,12.47,22.5,18.49,33.86,1.55,2.94,3.54,3.4,6.58,4,10.5,2.09,16.7-2.2,21.62-11.25,4.68-8.61,11-16.33,16.3-24.59,2.72-4.2,5.9-6.13,10.93-4.31q22.08,8,44.22,15.82c5,1.79,6.2,5.31,5.48,10.32-1.76,12.16-3.14,24.38-4.81,36.56-.55,4,.63,6.46,3.78,9.54,7,6.81,13.56,7.16,22.12,3.2,9.4-4.34,19.52-7.13,29.24-10.82,4.76-1.81,8.5-1.08,11.4,3.17Q388,90.08,400.88,109.06c3.13,4.62,2.39,8.55-1.62,12.59-8.79,8.87-17.13,18.2-25.89,27.12-2.61,2.66-2.52,5-2,8.46,1.49,9.68,6.51,14.27,16.2,16.05C398,175.19,408,179,418.15,181.86c3.62,1,6.53,2.68,6.43,6.77-.4,17.17-.77,34.34-1.82,51.47-.12,2-4.13,4.86-6.75,5.43-12.54,2.76-25.21,5-37.89,7.12-3.55.6-5.13,2.15-6.82,5.48-4.55,8.95-3,15.77,3.88,23S387.93,297,394.35,305c3.14,3.89,3.78,7.62.55,11.78-9.14,11.79-18,23.85-27.42,35.38-5.47,6.67-6.62,6.43-14.62,2.64-11.11-5.27-22.15-10.69-33.39-15.66-1.92-.85-4.92-.34-7,.52-9.35,3.83-12.64,10.55-11.19,20.89s.86,20.79,1.36,31.19c.21,4.36-1.2,7.49-5.48,8.76-15.38,4.55-30.76,9.09-46.2,13.44-4.58,1.28-7.79-.56-10.11-5-5.89-11.22-12.27-22.18-18.22-33.36-1.8-3.38-4.08-4.24-7.87-4.85-9.84-1.58-15.56,2.26-20.24,10.7-5,9.06-11.62,17.25-17.26,26-2.57,4-5.71,5.32-10.09,3.77q-22.15-7.81-44.28-15.72c-4.47-1.61-6.56-4.69-5.9-9.65,2-15.19,3.82-30.41,5.86-45.59a13.46,13.46,0,0,1,2.24-5.13Q137.91,315,150.9,295c3.93-6.06,6.41-6.6,12.58-3,55.53,32.81,125.11,8,146.1-52.77,19.92-57.71-16.4-118.1-75.66-129.69-24.32-4.75-47.42-.72-69,11.57-6.12,3.48-8.77,2.74-12.52-3.37-7.63-12.4-15.44-24.7-22.7-37.33a29.43,29.43,0,0,1-3.34-12.11c-.53-7-.14-14-.14-21Zm32,258.24q-11.7,18.27-23.44,36.64a6.87,6.87,0,0,0-.8,2.66c-1.55,12-3.2,24-4.43,36-.16,1.59,1.48,4.37,2.94,4.95,9.84,3.87,19.88,7.21,29.79,10.91,3.1,1.16,4.66.17,6.38-2.45,7.29-11.05,14.91-21.89,22.21-32.94,2.26-3.43,5-4.67,9-4.33a144.58,144.58,0,0,0,19.28.7c5.35-.27,8.28,1.69,10.69,6.34,5.74,11.08,12.09,21.84,17.95,32.86,1.56,2.94,3.36,3.67,6.32,2.79,9.6-2.84,19.17-5.77,28.83-8.37,4.11-1.1,5.16-3.29,4.92-7.35-.73-12.85-1-25.73-1.63-38.59-.19-4.09,1.4-6.7,4.85-8.81a132.25,132.25,0,0,0,15.48-10.49c4.34-3.59,8.07-3.61,12.9-1.17,11,5.53,22.22,10.51,33.27,15.9,3,1.47,5,1.5,7.22-1.37q9.22-12.23,18.84-24.14c2.23-2.77,1.78-4.73-.35-7.36-8.08-10-15.76-20.35-23.92-30.29-3.24-3.94-3.45-7.44-1.48-11.94a96.5,96.5,0,0,0,5.84-16.54c1.3-5.6,4.51-7.57,9.79-8.43,12.12-2,24.14-4.54,36.24-6.63,3.37-.58,5-1.95,5.12-5.45.21-9.83.48-19.66.92-29.49.18-4.06-1.34-6-5.4-7-11.52-2.95-22.89-6.5-34.41-9.51C366.79,181.22,363,178.58,362,172c-.87-5.54-2.89-11-5-16.22-1.78-4.49-1.07-7.78,2.29-11.23,8.85-9.08,17.5-18.37,26.06-27.74,1.15-1.26,2.38-4.09,1.77-5.06-6.59-10.5-13.54-20.77-20.32-31-14.59,5.3-27.94,10.07-41.21,15-4.32,1.6-7.76,1.32-11.38-2a107.75,107.75,0,0,0-14.42-11c-4.4-2.84-6-6.13-5.19-11.36,1.89-12.33,3.24-24.75,5-37.1.44-3.09-.15-5-3.31-6.09-9.8-3.43-19.54-7-29.3-10.59-3-1.12-5-.48-6.91,2.52-7,10.81-14.43,21.29-21.46,32.07-2.6,4-5.75,5.42-10.45,5a155.94,155.94,0,0,0-18.72-.49c-4.77.17-7.71-1.48-10-5.75-5.91-11.21-12.3-22.15-18.23-33.35-1.63-3.09-3.34-4-6.66-3-9.93,3-19.91,5.89-29.89,8.72-3,.85-4.14,2.58-4.17,5.73-.05,8.14.33,16.39-.84,24.39C138,65.63,140.75,76,148,85.81c5.11,6.91,9.23,14.55,13.76,21.79,54.34-27.09,111.44-8.87,141.63,29.5,32.43,41.2,33.1,97,2.21,138C277,313.15,218.54,336.09,159.68,305.65Z"/><path class="cls-1" d="M34.69,56.46c18.7.84,32.7,15.53,32,33.53-.77,18.7-16.13,32.55-35.08,31.65-18-.85-32.43-16.5-31.52-34.2C1,69.48,16.46,55.64,34.69,56.46ZM53.47,89c0-11-8.66-19.32-20.08-19.34-11.1,0-20.22,8.75-20.19,19.43s9.22,19.43,20.29,19.4C44.8,108.4,53.5,99.91,53.47,89Z"/><path class="cls-1" d="M119.93,297.45c-18.52-.19-33-14.59-32.82-32.68A33.2,33.2,0,0,1,120.19,232c18.59,0,33.8,15.28,33.49,33.6C153.38,283.63,138.51,297.65,119.93,297.45Zm.23-13.12c11.15,0,20.34-8.53,20.59-19.14.24-10.28-9.33-19.61-20.17-19.66-11.3-.06-20.24,8.41-20.31,19.23S109,284.31,120.16,284.33Z"/><path class="cls-1" d="M66.62,204.65c-.06,18.6-14.87,32.62-34.25,32.41A32.47,32.47,0,0,1,0,204.45c.05-17.91,15-32.58,33.15-32.65C51.6,171.73,66.67,186.52,66.62,204.65ZM32.8,224.05c11.06,0,20.46-8.64,20.64-19.07.18-10.92-9.13-20.09-20.32-20C22.21,185,13,194.11,13.05,204.72S22.11,224,32.8,224.05Z"/><path class="cls-1" d="M66.65,318.47a32.87,32.87,0,0,1-33.28,33C15.24,351.4.18,336.68.06,318.91-.07,300.78,15,286,33.48,286.05S66.56,300.38,66.65,318.47Zm-13.18.45c.09-11-8.56-19.58-19.81-19.66s-20.32,8.49-20.42,19.19,9.17,19.77,20,19.85A19.79,19.79,0,0,0,53.47,318.92Z"/><path class="cls-1" d="M244.77,204.84c-.08,18-15.31,32.48-34,32.31-19.12-.17-32.7-14.1-32.5-33.32.19-17.89,14.73-32,33-32S244.85,186.9,244.77,204.84Zm-34,19.17c10.9.11,20.5-8.65,20.78-19,.28-10.63-9.41-20.18-20.43-20.13s-19.87,9-20,20.36C191.09,215.17,200.25,223.92,210.79,224Z"/><path class="cls-1" d="M87.17,149c.26-18.38,15.19-32.58,33.88-32.2,18.41.37,32.78,14.9,32.63,33-.16,17.8-15.28,32.45-33.42,32.37A32.81,32.81,0,0,1,87.17,149Zm13.1.54c0,10.71,9.29,19.65,20.23,19.55,10.74-.11,20.38-9.55,20.24-19.82-.15-10.6-9.53-19.5-20.49-19.43A19.88,19.88,0,0,0,100.27,149.55Z"/><path class="cls-2" d="M121.16,197.67h43.72c4.27,0,8.09.68,8.5,6.08.43,5.63-3.11,7.3-7.77,7.39-9.63.17-19.26.14-28.88.16-11.49,0-23,.09-34.48,0-8.86,0-17.72-.19-26.58-.48-4.2-.13-5.89-2.82-5.9-6.82,0-4.41,2.8-6.15,6.54-6.25,8.32-.23,16.65-.09,25-.09Z"/><path class="cls-2" d="M94.23,335.34c-4.36,0-8.71,0-13.07,0-6.86-.06-9.8-2.14-9.69-6.75s3-6.44,10-6.46c7.19,0,14.4-.22,21.58.1,3.73.16,5.93-1.11,7.77-4.26,2.47-4.23,5.34-8.24,8.13-12.28,2.55-3.7,6.09-4.78,9.78-2.2s3.16,6.27,1.06,9.61c-3.71,5.92-7.23,12.07-11.73,17.35-2.16,2.53-6.23,4.11-9.67,4.7C103.8,335.93,99,335.34,94.23,335.34Z"/><path class="cls-2" d="M94.46,81.25c23.39,0,19-2,32,17.21,1.16,1.72,2.38,3.41,3.41,5.2,2.12,3.7,2.37,7.47-1.6,9.9-3.61,2.21-6.93.85-9.27-2.58-3-4.37-5.61-9-8.92-13.08a9.76,9.76,0,0,0-6.31-3.33c-8.1-.39-16.23-.19-24.35-.15-4.3,0-7.64-1.4-7.87-6.17-.24-5.07,3-7,7.64-7C84.27,81.22,89.36,81.25,94.46,81.25Z"/><path class="cls-2" d="M180.05,136.48c5.1,0,10.28-.55,15.27.2,3.22.48,7,2.13,9,4.54,4.44,5.33,8,11.44,11.77,17.28,2.4,3.66,2.5,7.29-1.38,9.89s-7.15,1-9.59-2.65a8.06,8.06,0,0,1-.93-1.42c-5.2-13.21-15.05-17.37-28.54-15-3.3.57-6.79,0-10.19.09-4.41.06-7.52-1.66-7.57-6.4s2.86-6.6,7.39-6.52C170.22,136.54,175.13,136.47,180.05,136.48Z"/><path class="cls-2" d="M180,272.14c-4.91,0-9.83,0-14.74,0-4.5,0-7.36-1.85-7.28-6.62.08-4.48,2.95-6.25,7.1-6.27,7.94,0,15.89-.26,23.81.09,4.14.18,6.58-1.2,8.56-4.76,2.29-4.1,5.23-7.84,7.8-11.79s5.86-5,9.63-2.49,3.66,6.26,1.25,9.91c-3.64,5.51-6.83,11.42-11.16,16.32-2.42,2.74-6.59,4.68-10.27,5.39C189.91,272.82,184.86,272.14,180,272.14Z"/></g></g></svg>