<svg xmlns="http://www.w3.org/2000/svg" viewBox="0 0 387.45 388.85"><defs><style>.cls-1{fill:#fff;}.cls-2{fill:#00afff;}</style></defs><g id="Capa_2" data-name="Capa 2"><g id="Capa_1-2" data-name="Capa 1"><path class="cls-1" d="M383.62,240.37c-24.19,99.71-119.5,162.09-222.31,145.94C64.25,371.06-7.35,278.69.6,179,8.64,78.3,93.69,0,194.9,0A194.57,194.57,0,0,1,383.25,147.07S392.45,181.51,383.62,240.37ZM194.25,374c98.69.16,179.51-79.9,179.91-178.26.41-99.38-79.9-180.42-178.93-180.58C96.52,15,15.7,95.06,15.32,193.4,14.93,292.8,95.21,373.82,194.25,374Z"/><path class="cls-2" d="M184.23,180.11c0-21,0-40.53,0-60.11,0-3.93-1.32-8.6.33-11.64,2.49-4.57,7.07-8,10.76-11.93,3.32,3.88,9.39,7.67,9.52,11.65.85,26.67.38,53.37.45,80.06,0,8.82-4.61,12.92-12.94,13q-39.39.19-78.77,0c-7.27,0-14.6-2.9-12.67-10.91,1-4.24,8.78-9.36,13.78-9.69,17.87-1.16,35.85-.44,53.8-.43Z"/><path class="cls-1" d="M90.94,107.62c-3.16-5.11-9.08-10.46-8.66-15.27.39-4.53,8.25-12.41,11.42-11.78,5.19,1,12.1,7.3,12.92,12.25.72,4.32-6,9.88-9.36,14.89Z"/><path class="cls-1" d="M97.71,278.88c3.25,5.1,9.75,10.84,8.9,15.14-1,4.94-8,11-13.25,11.9-3.19.55-10.81-7.57-11.09-12.12-.29-4.8,5.79-10,9.08-15Z"/><path class="cls-1" d="M194.51,69.63c-6-8.38-11.47-12.78-12.32-17.94-1.32-8,4.32-13.21,12.68-13.1S208.8,44,207.27,52C206.29,57.12,200.72,61.39,194.51,69.63Z"/><path class="cls-1" d="M298,77.79c3.32,5.2,9.38,10.52,9.13,15.54-.2,4.27-7.72,11.42-11.91,11.37-4.47-.07-12.14-6.93-12.38-11.17-.29-5,5.83-10.46,9.17-15.72Z"/><path class="cls-1" d="M49.67,208.1c-3.31-5.13-9.44-10.46-9.09-15.34.31-4.35,7.25-10.7,12.18-11.7,7.92-1.62,13.91,4.63,12.55,12.66-.88,5.15-6.36,9.53-9.77,14.25Z"/><path class="cls-1" d="M351.66,196.84c-5.34,3.08-11,8.94-15.93,8.42-4.4-.47-11.26-8.1-11.14-12.4s7.49-11.41,11.92-11.6c5-.22,10.27,5.93,15.42,9.31Z"/><path class="cls-1" d="M291.58,308.57c-3.18-5.33-9.14-10.92-8.69-15.92.39-4.26,7.76-10.34,12.77-11.17,8.11-1.34,13.64,5.19,11.81,13.21-1.18,5.19-6.69,9.4-10.26,14Z"/><path class="cls-1" d="M191.59,349.92c-3.3-4.83-8.66-9.35-9.42-14.55-1.19-8.11,5.07-14.12,12.89-12.33,4.91,1.12,11.75,7.7,11.9,12,.17,4.93-6.14,10.09-9.63,15.15Z"/></g></g></svg>