<svg xmlns="http://www.w3.org/2000/svg" viewBox="0 0 156.86 59.29"><defs><style>.cls-1{font-size:9.02px;fill:#121c62;font-family:DIN-Light, DIN Light;font-weight:300;}.cls-2{letter-spacing:0.01em;}.cls-3{letter-spacing:0em;}.cls-4{letter-spacing:-0.01em;}.cls-5{letter-spacing:-0.01em;}.cls-6{letter-spacing:0em;}.cls-7{letter-spacing:-0.01em;}.cls-8{letter-spacing:0em;}.cls-9{letter-spacing:-0.01em;}.cls-10{fill:#132268;}</style></defs><title>logo-azul</title><g id="Capa_2" data-name="Capa 2"><g id="Capa_1-2" data-name="Capa 1"><text class="cls-1" transform="translate(0 57.03)"><tspan class="cls-2">G</tspan><tspan class="cls-3" x="5.87" y="0">ene</tspan><tspan class="cls-4" x="19.92" y="0">r</tspan><tspan x="22.83" y="0">ación y </tspan><tspan class="cls-5" x="51.37" y="0">U</tspan><tspan x="57.15" y="0">so Eficie</tspan><tspan class="cls-6" x="87.42" y="0">n</tspan><tspan class="cls-7" x="92.39" y="0">t</tspan><tspan x="95.33" y="0">e </tspan><tspan class="cls-8" x="101.76" y="0">D</tspan><tspan x="107.8" y="0">e Ene</tspan><tspan class="cls-9" x="128.21" y="0">r</tspan><tspan class="cls-5" x="131.08" y="0">g</tspan><tspan x="136.07" y="0">ía</tspan></text><path class="cls-10" d="M39.61,3.63c0,.38-.21.56-.6.47a1.25,1.25,0,0,0-.83.09.77.77,0,0,0-.5.79.87.87,0,0,0,.66.77.81.81,0,0,0,.9-.29,1.08,1.08,0,0,0,.26-.77c0-.4.26-.55.65-.37a.65.65,0,0,0,1-.5,2.58,2.58,0,0,0,0-.39c0-.4.08-.46.47-.33l.23.09c.09,0,.19.07.26,0s0-.18,0-.26a2.17,2.17,0,0,0-.63-.81c-.13-.11-.28-.28-.46-.18s-.1.3-.11.44c.05.52.05.52-.44.48-.71-.05-.87.09-.89.78"/><path class="cls-10" d="M39.33,8.24a1.48,1.48,0,0,0,.46.08.7.7,0,0,0,.45-.15l0,0h0L40.4,8h0A.24.24,0,0,0,40.49,8a.3.3,0,0,0,0-.1h0a.14.14,0,0,1,0-.06s0-.07,0-.11a.47.47,0,0,0,0-.17c.08-.66.08-.63.76-.61h.16c.54,0,.76-.24.71-.76s-.06-.53.48-.5c.22,0,.4,0,.41-.26a1.76,1.76,0,0,0-.38-1.18.35.35,0,0,0-.36-.13.39.39,0,0,0-.25.29,1.67,1.67,0,0,0,0,.59c.06.34-.07.45-.41.43-.93,0-.93,0-.95.88v.16a.34.34,0,0,1-.39.32,4,4,0,0,0-.49,0,.87.87,0,0,0-.93.71.94.94,0,0,0-.06.15c-.1.58-.1.59-.72.57a1.11,1.11,0,0,0-.62.13.66.66,0,0,0-.35.67.59.59,0,0,0,.51.49.74.74,0,0,0,.94-.59,1.08,1.08,0,0,1,.08-.19.86.86,0,0,1,.1-.16,1.2,1.2,0,0,1,.28-.27h.17"/><path class="cls-10" d="M42.9,7.06c-.32,0-.5.13-.6.42a3.66,3.66,0,0,0-.1.74.65.65,0,0,1-.53.65c-.8.15-1,.4-1,1.2a.78.78,0,0,1-.72.41.65.65,0,0,0-.48.17.45.45,0,0,0-.12.69.48.48,0,0,0,.74,0,.67.67,0,0,0,.27-.43.66.66,0,0,1,.2-.39.89.89,0,0,1,.51-.18,1.23,1.23,0,0,0,.51-.15.58.58,0,0,0,.21-.2.61.61,0,0,0,.07-.14A1.35,1.35,0,0,0,42,9.52a.86.86,0,0,1,.5-.77,1.29,1.29,0,0,0,.72-1.12c0-.24,0-.51-.3-.57"/><path class="cls-10" d="M37.1,6a.79.79,0,0,0-.79-.39c-.45.08-.56.45-.64.82-.13.59-.13.58-.75.64a.55.55,0,0,0-.59.49c0,.31.18.46.46.5s.48-.14.57-.42c.17-.54.28-.61.83-.58a3.2,3.2,0,0,0,.44,0,.62.62,0,0,0,.47-1"/><path class="cls-10" d="M32.33,3.07c.35,0,.5-.21.59-.49l0-.08c0-.41.27-.56.68-.53a.78.78,0,0,0,.9-.58A2.2,2.2,0,0,1,34.66,1l.1-.09.16-.07a1,1,0,0,1,.5-.06A1.89,1.89,0,0,0,36,.8a.45.45,0,0,0,.41-.46c0-.29-.24-.32-.46-.34a1.49,1.49,0,0,0-.57.08,1.37,1.37,0,0,0-.67.6.67.67,0,0,1-.41.2h-.16c-.54,0-.86.16-.94.58a.73.73,0,0,1-.7.68.52.52,0,0,0-.5.54.39.39,0,0,0,.38.39"/><path class="cls-10" d="M35,4.65a1.36,1.36,0,0,0,.14-.4c.11-.54.12-.55.68-.53h.24a.74.74,0,0,0,.64-.37A1.31,1.31,0,0,0,36.87,3c.11-.24,0-.59.27-.74s.55.06.83.09.53,0,.55-.44c0-.15,0-.29.06-.43s.15-.33.4-.24a4.77,4.77,0,0,0,.54.15A.37.37,0,0,0,40,1.27a.35.35,0,0,0-.11-.46A2,2,0,0,0,39,.35c-.38-.11-.49,0-.54.34s-.12.45-.51.32c-.58-.2-.84-.06-1,.51,0,.12-.05.26-.07.38s-.17.33-.43.32c-1-.07-1.26.16-1.27,1.13a.83.83,0,0,1-.66.32,1.07,1.07,0,0,0-.39.1.64.64,0,0,0-.42.74.54.54,0,0,0,.47.52A.68.68,0,0,0,35,4.65"/><path class="cls-10" d="M33.57,5.68A.55.55,0,0,0,33,5.1a.56.56,0,0,0-.57.51.55.55,0,0,0,.54.58.56.56,0,0,0,.57-.51"/><path class="cls-10" d="M36.34,9.36a.56.56,0,0,0-.53.55.54.54,0,0,0,.57.54.55.55,0,0,0,.53-.58.57.57,0,0,0-.57-.51"/><path class="cls-10" d="M33.57,8.24a.41.41,0,1,0,.42.39.38.38,0,0,0-.42-.39"/><path class="cls-10" d="M35.18,10.3c-.19,0-.33.15-.32.37a.33.33,0,0,0,.35.32.33.33,0,0,0,.36-.35c0-.21-.15-.31-.39-.34"/><path class="cls-10" d="M38.51,11.47a.33.33,0,0,0-.33.36.35.35,0,0,0,.69,0c0-.22-.14-.33-.36-.34"/><path class="cls-10" d="M32.42,6.46a.35.35,0,0,0-.69,0c0,.22.13.33.36.34s.34-.14.33-.36"/><path class="cls-10" d="M32.4,9.05a.3.3,0,0,0-.35.3c0,.2.11.31.32.34a.31.31,0,0,0,.34-.31.3.3,0,0,0-.31-.33"/><path class="cls-10" d="M31.86,3.49a.26.26,0,0,0-.3-.25c-.18,0-.29.11-.28.27s.11.29.32.3.28-.13.26-.32"/><path class="cls-10" d="M31.58,9.86a.19.19,0,0,0-.19.24.18.18,0,0,0,.23.16.2.2,0,0,0,.18-.21.2.2,0,0,0-.22-.19"/><polygon class="cls-10" points="1.56 6.2 10 6.2 10 36.44 29.14 36.44 29.14 43.94 1.56 43.94 1.56 6.2"/><rect class="cls-10" x="33.07" y="14.8" width="8.33" height="29.14"/><path class="cls-10" d="M45.33,14.8h8.34v6.07a12.06,12.06,0,0,1,3.45-4.75A8.58,8.58,0,0,1,63,14.5v8.58H62.6a8.61,8.61,0,0,0-6.54,2.48c-1.6,1.65-2.39,4.22-2.39,7.7V43.93H45.33Z"/><polygon class="cls-10" points="64.79 14.82 73.62 14.82 80.21 34.18 86.84 14.82 95.51 14.82 83.94 43.94 76.36 43.94 64.79 14.82"/><path class="cls-10" d="M103.94,44.56A13.13,13.13,0,0,1,100,44a9.29,9.29,0,0,1-3.21-1.69,8.09,8.09,0,0,1-2.16-2.78,8.47,8.47,0,0,1-.8-3.8v-.11a8.89,8.89,0,0,1,.88-4.1,7.81,7.81,0,0,1,2.44-2.85A10.75,10.75,0,0,1,100.9,27a18.82,18.82,0,0,1,4.8-.56,21.48,21.48,0,0,1,3.92.31,25.64,25.64,0,0,1,3.26.87v-.49a4.85,4.85,0,0,0-1.59-3.93,7.11,7.11,0,0,0-4.71-1.35,20,20,0,0,0-4.26.4,29.61,29.61,0,0,0-3.86,1.16l-2.09-6.25a33.2,33.2,0,0,1,5-1.67,27,27,0,0,1,6.36-.65,18.16,18.16,0,0,1,5.89.84,10.51,10.51,0,0,1,4,2.39,9.72,9.72,0,0,1,2.41,4,16.86,16.86,0,0,1,.77,5.26V43.93h-8.07v-3a11.31,11.31,0,0,1-3.67,2.67,12.2,12.2,0,0,1-5.21,1m2.52-5.66a7.44,7.44,0,0,0,4.75-1.41A4.42,4.42,0,0,0,113,33.83V32.38a12.47,12.47,0,0,0-2.44-.79,13.9,13.9,0,0,0-2.88-.3,7.54,7.54,0,0,0-4.22,1,3.35,3.35,0,0,0-1.54,3v.1A3,3,0,0,0,103.17,38a5.48,5.48,0,0,0,3.29.92"/><path class="cls-10" d="M124.51,14.8h8.33v4.13a18.58,18.58,0,0,1,1.57-1.77,10.61,10.61,0,0,1,1.89-1.49,9.82,9.82,0,0,1,2.3-1,9.71,9.71,0,0,1,2.86-.38q4.77,0,7.37,2.86c1.74,1.9,2.61,4.53,2.61,7.87V43.93H143.1V27.61a6.46,6.46,0,0,0-1.31-4.38,4.78,4.78,0,0,0-3.74-1.48,5,5,0,0,0-3.81,1.48,6.18,6.18,0,0,0-1.4,4.38V43.93h-8.33Z"/><path class="cls-10" d="M156.86,16.15a2.68,2.68,0,1,1-2.67-2.56A2.6,2.6,0,0,1,156.86,16.15Zm-4.69,0a2,2,0,0,0,2,2,2,2,0,0,0,2-2,2,2,0,1,0-4,0Zm1.61,1.34h-.61V14.93a5.19,5.19,0,0,1,1-.08,1.62,1.62,0,0,1,.9.19.71.71,0,0,1,.25.56.65.65,0,0,1-.54.59v0a.77.77,0,0,1,.48.63,2,2,0,0,0,.19.64h-.65a2.12,2.12,0,0,1-.21-.63c0-.28-.2-.4-.54-.4h-.28Zm0-1.45h.29c.33,0,.6-.11.6-.38s-.17-.39-.55-.39a2.09,2.09,0,0,0-.34,0Z"/></g></g></svg>