<svg xmlns="http://www.w3.org/2000/svg" viewBox="0 0 149.97 157.83"><defs><style>.cls-1{fill:#575756;}</style></defs><g id="Capa_2" data-name="Capa 2"><g id="Capa_4" data-name="Capa 4"><path class="cls-1" d="M70,0h6.44c.53.05,1.06.13,1.59.15a68,68,0,0,1,25.7,5.91c15.33,6.74,27,17.61,35.34,32,9.56,16.53,12.66,34.37,9.93,53.2a77.3,77.3,0,0,1-15.57,37c-13.84,17.74-31.81,28-54.5,29.39A68.51,68.51,0,0,1,51.72,154a74.32,74.32,0,0,1-38.81-30.86C1.13,104.63-2.5,84.43,1.66,63A77.81,77.81,0,0,1,30.23,15.75,71.81,71.81,0,0,1,65.33.62C66.89.4,68.45.21,70,0Zm58.19,34c-4.93,5.34-10.92,8.77-17.57,11.24,0,0,0,.1,0,.17,2,9.74,3.8,19.51,4,29.5a1.93,1.93,0,0,0,.1.42h28.38C142,60.28,137.41,46.45,128.21,34Zm14.85,48.58c-.2,0-.36,0-.51,0-9.12,0-18.25,0-27.37,0-.58,0-.7.22-.73.75-.09,1.6-.19,3.21-.36,4.81a200.49,200.49,0,0,1-3.53,21.65c-.34,1.57-.34,1.6,1.13,2.29a71.31,71.31,0,0,1,16,9.82c.4.34.86.62,1.31.94A76,76,0,0,0,143.06,82.61ZM6.86,75.49H28.92c1.37,0,2.74,0,4.11,0,.56,0,.74-.18.75-.73,0-.78.11-1.55.15-2.33a133.07,133.07,0,0,1,3.65-25.11c.59-2.37.57-2.37-1.75-3.22a53.51,53.51,0,0,1-13.27-6.79c-2.06-1.49-2.09-1.49-3.5.67a79.22,79.22,0,0,0-7,13.72A81.23,81.23,0,0,0,7.56,69.28C7.23,71.28,7.1,73.31,6.86,75.49Zm27,7.15H7c1,14.11,5,27.13,13.14,38.77,1.2-.79,2.33-1.55,3.48-2.29a91.53,91.53,0,0,1,14-7c.64-.27.81-.55.63-1.25a153.78,153.78,0,0,1-3.64-21C34.3,87.47,34.07,85.07,33.82,82.64ZM71.28,50.17c-2.47-.14-4.88-.24-7.28-.42a124.35,124.35,0,0,1-18.13-2.63c-.76-.18-1.11,0-1.28.71-.05.2-.12.41-.17.62a111.61,111.61,0,0,0-3.56,26.23c0,.25,0,.5,0,.74H71.28Zm7.46,25.26h29c0-.31,0-.58,0-.84-.33-4-.47-8-1-11.94-.66-4.55-1.68-9.06-2.6-13.57-.27-1.32-.83-1.61-2.17-1.36-1,.18-1.89.41-2.83.58a110.53,110.53,0,0,1-17.59,1.79c-.92,0-1.83.2-2.74.3ZM40.86,82.61c.09,1.33.1,2.56.26,3.78.64,4.64,1.28,9.28,2,13.91.43,2.67,1.1,5.29,1.63,7.94.17.85.63,1.08,1.43.89,1.07-.26,2.15-.46,3.22-.7a102.21,102.21,0,0,1,21.46-2.94,2.71,2.71,0,0,0,.38-.06V82.61Zm37.89,22.77c.24,0,.43.06.61.07a94.08,94.08,0,0,1,23.17,3.38.77.77,0,0,0,1.1-.58,26.55,26.55,0,0,0,.68-2.73q1.47-9.09,2.86-18.18c.24-1.55.28-3.13.42-4.72H78.75Zm-7.5,43.91v-37c-.22,0-.38,0-.54,0-4.57.55-9.17,1-13.72,1.7a82.37,82.37,0,0,0-8.59,2c-1.25.33-1.33.55-.86,1.73,1.34,3.36,2.6,6.76,4.15,10a51.34,51.34,0,0,0,12.49,16.9A33.33,33.33,0,0,0,71.25,149.29Zm7.65-.92c.52-.3.78-.44,1-.59a36.41,36.41,0,0,0,7.46-6.09c6.53-7,10.54-15.36,13.53-24.31.54-1.63.47-1.66-1.21-2.1a97.23,97.23,0,0,0-16.86-2.86c-1.34-.11-2.7-.16-3.94-.24ZM71.28,7c-1.39-.12-1.43-.07-1.11,1.21,0,.08,0,.16,0,.24.29,1.21.19,1.52-.84,2.24s-2,1.22-2.86,1.94c-8.93,7.06-14.89,16.25-19.09,26.7-.25.62,0,.93.53,1.06,1.83.4,3.65.91,5.5,1.15,4.73.61,9.48,1.1,14.22,1.61,1.18.12,2.38.14,3.6.21Zm7.48,36.5c3.2-.23,6.31-.34,9.4-.68,3.91-.44,7.81-1,11.7-1.63,1.57-.24,1.6-.39,1-1.87A68.38,68.38,0,0,0,94.66,27,56,56,0,0,0,80.09,11.28c-.4-.29-.83-.55-1.33-.87Zm44.88-15a74.79,74.79,0,0,0-16.29-12.84c-5.85-3.4-17-7.55-19.41-7.13.16.14.29.23.41.34,7.45,6.58,12.93,14.63,17.22,23.52.9,1.86,1.64,3.79,2.45,5.68.26.61.63.79,1.26.45,2.78-1.49,5.64-2.85,8.35-4.46A16.66,16.66,0,0,0,123.64,28.46ZM90.34,149l.11.18a68.34,68.34,0,0,0,34-20.69c-2.75-3-13.46-9.74-16.09-10.11-1.53,3.68-2.88,7.44-4.63,11a82.86,82.86,0,0,1-5.92,10.31C95.55,142.93,92.84,145.88,90.34,149ZM40.28,38.52c.22-.51.33-.78.44-1.05,3-7.29,6.48-14.31,11.58-20.39,2.08-2.49,4.35-4.82,6.52-7.23.29-.31.52-.68.92-1.2-.57.14-.89.19-1.18.29-2,.67-4,1.32-5.92,2A66.91,66.91,0,0,0,25.58,29.5c-.7.78-.75.92.13,1.48,2.24,1.46,4.48,3,6.85,4.19S37.64,37.39,40.28,38.52ZM57.53,148.65l.1-.17c-.43-.53-.84-1.1-1.31-1.6a68.77,68.77,0,0,1-13-20.61c-1-2.29-1.84-4.63-2.74-7-.25-.65-.62-.77-1.24-.48-1.84.87-3.74,1.63-5.54,2.57-2.7,1.42-5.36,2.92-8,4.46-1.35.79-1.38,1.32-.32,2.44.79.84,1.62,1.65,2.42,2.48A68.73,68.73,0,0,0,56,148.18C56.47,148.36,57,148.49,57.53,148.65Z"/></g></g></svg>