<svg xmlns="http://www.w3.org/2000/svg" viewBox="0 0 318.45 119.06"><defs><style>.cls-1,.cls-2{fill:#fff;}.cls-2{font-size:17.98px;font-family:MyriadPro-Regular, Myriad Pro;letter-spacing:0.05em;}.cls-3{letter-spacing:0.05em;}.cls-4{letter-spacing:0.05em;}.cls-5{letter-spacing:0.04em;}.cls-6{letter-spacing:0.04em;}.cls-7{letter-spacing:0.05em;}.cls-8{letter-spacing:0.04em;}.cls-9{letter-spacing:0.05em;}.cls-10{letter-spacing:0.04em;}</style></defs><title>logo-blancoRecurso 12</title><g id="Capa_2" data-name="Capa 2"><g id="Capa_1-2" data-name="Capa 1"><path class="cls-1" d="M78.15,7.43c0,.79-.43,1.15-1.22,1a2.42,2.42,0,0,0-1.7.18,1.58,1.58,0,0,0-1,1.61,1.81,1.81,0,0,0,1.35,1.59,1.68,1.68,0,0,0,1.86-.6,2.21,2.21,0,0,0,.52-1.58c0-.82.53-1.13,1.34-.76a1.32,1.32,0,0,0,2-1A4.43,4.43,0,0,0,81.36,7c0-.81.17-.93,1-.66.17,0,.31.12.47.17s.39.15.54,0,.07-.36,0-.53A4.47,4.47,0,0,0,82,4.32c-.27-.22-.56-.57-.94-.37s-.21.63-.22.91c.1,1.06.1,1.06-.91,1-1.45-.11-1.79.18-1.82,1.58"/><path class="cls-1" d="M77.57,16.89a3.22,3.22,0,0,0,1,.16,1.52,1.52,0,0,0,.92-.31.47.47,0,0,0,.09-.06l0,0a0,0,0,0,1,0,0l.18-.2v0A.66.66,0,0,0,80,16.3a.6.6,0,0,0,.08-.21h0s0-.08,0-.12l.09-.23a1.39,1.39,0,0,0,.09-.35c.14-1.35.16-1.3,1.54-1.25h.33c1.12,0,1.57-.49,1.45-1.56s-.1-1.08,1-1c.45,0,.82,0,.84-.54a3.52,3.52,0,0,0-.78-2.42.64.64,0,0,0-.73-.26.71.71,0,0,0-.5.59,2.9,2.9,0,0,0,0,1.21c.12.68-.14.93-.85.88-1.9-.11-1.9-.1-1.94,1.81,0,.1,0,.22,0,.32a.66.66,0,0,1-.79.64,8.34,8.34,0,0,0-1,0,1.78,1.78,0,0,0-1.91,1.45,1.66,1.66,0,0,0-.12.31c-.2,1.19-.2,1.2-1.47,1.16A2.38,2.38,0,0,0,74,17a1.31,1.31,0,0,0-.71,1.35,1.23,1.23,0,0,0,1.06,1,1.51,1.51,0,0,0,1.92-1.2,3.52,3.52,0,0,1,.16-.39,2.63,2.63,0,0,1,.2-.33,2,2,0,0,1,.59-.54h.33"/><path class="cls-1" d="M84.89,14.48a1,1,0,0,0-1.22.84,7.93,7.93,0,0,0-.21,1.53,1.32,1.32,0,0,1-1.1,1.32c-1.63.32-2,.82-1.94,2.46a1.57,1.57,0,0,1-1.47.85,1.39,1.39,0,0,0-1,.35.92.92,0,0,0-.24,1.41,1,1,0,0,0,1.53.09,1.6,1.6,0,0,0,.55-.88,1.33,1.33,0,0,1,.4-.8,1.79,1.79,0,0,1,1-.38,2.61,2.61,0,0,0,1-.3,1.26,1.26,0,0,0,.44-.42,1.13,1.13,0,0,0,.15-.29,2.64,2.64,0,0,0,.14-.75,1.73,1.73,0,0,1,1-1.58,2.6,2.6,0,0,0,1.46-2.3c0-.48.07-1.05-.61-1.15"/><path class="cls-1" d="M73,12.28a1.61,1.61,0,0,0-1.61-.81c-.94.17-1.16.94-1.33,1.68-.27,1.21-.26,1.2-1.54,1.31-.64,0-1.13.33-1.19,1s.35.94.93,1,1-.3,1.18-.87c.35-1.09.57-1.24,1.69-1.19a5.53,5.53,0,0,0,.91,0,1.28,1.28,0,0,0,1-2.15"/><path class="cls-1" d="M63.24,6.3c.71,0,1-.43,1.21-1a1.24,1.24,0,0,0,0-.16c.09-.84.56-1.15,1.41-1.1a1.59,1.59,0,0,0,1.84-1.18A3.53,3.53,0,0,1,68,2.12a.73.73,0,0,1,.2-.19,2.3,2.3,0,0,1,.32-.15,2.1,2.1,0,0,1,1-.11,3.9,3.9,0,0,0,1.08,0A.92.92,0,0,0,71.5.69c0-.59-.51-.65-1-.68a2.66,2.66,0,0,0-1.15.15A2.77,2.77,0,0,0,68,1.39a1.26,1.26,0,0,1-.84.4,1.88,1.88,0,0,1-.34,0c-1.11-.05-1.75.32-1.92,1.18a1.51,1.51,0,0,1-1.43,1.4,1.06,1.06,0,0,0-1,1.1.82.82,0,0,0,.79.81"/><path class="cls-1" d="M68.69,10.33A2.76,2.76,0,0,0,69,9.5c.22-1.1.25-1.13,1.39-1.08h.13l.37,0a1.52,1.52,0,0,0,1.31-.75A3.77,3.77,0,0,0,72.53,7c.23-.5-.06-1.21.57-1.53s1.12.13,1.69.19c.87.1,1.08-.06,1.13-.91,0-.3.08-.59.12-.88.07-.48.3-.67.81-.49a6.17,6.17,0,0,0,1.12.3.75.75,0,0,0,.88-.3.73.73,0,0,0-.23-1A4,4,0,0,0,77,1.52c-.78-.23-1-.1-1.1.68s-.26.92-1,.65c-1.18-.41-1.72-.12-2,1,0,.26-.11.53-.15.79-.07.5-.35.67-.86.64-2.1-.13-2.6.34-2.61,2.33a1.76,1.76,0,0,1-1.37.66,2.25,2.25,0,0,0-.79.2,1.3,1.3,0,0,0-.85,1.5,1.1,1.1,0,0,0,1,1.07,1.36,1.36,0,0,0,1.5-.76"/><path class="cls-1" d="M65.77,11.63a1.11,1.11,0,0,0-1.11-1.17,1.11,1.11,0,1,0,0,2.22,1.12,1.12,0,0,0,1.16-1"/><path class="cls-1" d="M71.45,19.19a1.12,1.12,0,1,0,1.17,1,1.15,1.15,0,0,0-1.17-1"/><path class="cls-1" d="M65.76,16.89a.78.78,0,0,0-.86.8.81.81,0,0,0,.83.88c.62,0,.9-.36.89-.89a.76.76,0,0,0-.86-.79"/><path class="cls-1" d="M69.08,21.11c-.39.1-.69.31-.66.77a.68.68,0,0,0,.72.65.67.67,0,0,0,.72-.72c0-.44-.31-.65-.78-.7"/><path class="cls-1" d="M75.9,23.51c-.44.06-.71.3-.68.74a.64.64,0,0,0,.69.64.65.65,0,0,0,.73-.69c0-.44-.29-.67-.74-.69"/><path class="cls-1" d="M63.41,13.24a.71.71,0,0,0-1.42,0,.69.69,0,0,0,.74.71c.43-.08.7-.3.68-.75"/><path class="cls-1" d="M63.37,18.54a.61.61,0,0,0-.71.62.62.62,0,0,0,.65.69.66.66,0,1,0,.06-1.31"/><path class="cls-1" d="M62.27,7.15a.54.54,0,0,0-.62-.51c-.36,0-.59.22-.58.56s.23.59.67.61.58-.27.53-.66"/><path class="cls-1" d="M61.7,20.21a.39.39,0,0,0-.4.49.39.39,0,0,0,.47.34.42.42,0,0,0,.38-.43c-.06-.26-.2-.42-.45-.4"/><polygon class="cls-1" points="0 13.42 17 13.42 17 75.42 57 75.42 57 90.42 0 90.42 0 13.42"/><rect class="cls-1" x="65" y="30.42" width="17" height="60"/><path class="cls-1" d="M90,30.42h17V42.87a24.63,24.63,0,0,1,7-9.74c3-2.44,7-3.54,12-3.33V47.42h-.89q-8.44,0-13.27,5.09T107,68.34V90.42H90Z"/><polygon class="cls-1" points="129.58 30.42 147.78 30.42 161.35 70.31 175.03 30.42 192.9 30.42 169.04 90.42 153.43 90.42 129.58 30.42"/><path class="cls-1" d="M209.68,91.32a27.27,27.27,0,0,1-8-1.16,19,19,0,0,1-6.57-3.47,16.78,16.78,0,0,1-4.43-5.7A17.61,17.61,0,0,1,189,73.2V73a18.45,18.45,0,0,1,1.8-8.4,16.06,16.06,0,0,1,5-5.85,22.51,22.51,0,0,1,7.65-3.48,38.94,38.94,0,0,1,9.83-1.15,43,43,0,0,1,8,.65A49.83,49.83,0,0,1,228,56.52v-.1q0-5.49-3.37-8.35t-10-2.85a41.71,41.71,0,0,0-9,.85,60.45,60.45,0,0,0-8.2,2.46L193,35.26a70.39,70.39,0,0,1,10.71-3.55,57.19,57.19,0,0,1,13.51-1.37,38.88,38.88,0,0,1,12.51,1.77,22.27,22.27,0,0,1,8.55,5.09,20.57,20.57,0,0,1,5.13,8.41A35.92,35.92,0,0,1,245,56.77V90.42H228V83.81a23.52,23.52,0,0,1-7.53,5.46,25,25,0,0,1-10.67,2m4.65-11.5q6.15,0,9.85-2.91A9.22,9.22,0,0,0,228,69.3v-3a26,26,0,0,0-5.07-1.62,27.68,27.68,0,0,0-6-.63c-3.73,0-6.65.72-8.77,2.14A6.93,6.93,0,0,0,205,72.33v.22a6.24,6.24,0,0,0,2.62,5.37,11.32,11.32,0,0,0,6.83,1.9"/><path class="cls-1" d="M252,30.42h17v8.5a35.07,35.07,0,0,1,3.19-3.64,22.34,22.34,0,0,1,3.87-3.07,19.05,19.05,0,0,1,4.71-2.12,19.77,19.77,0,0,1,5.83-.79q9.75,0,15.07,5.89T307,51.39v39H290V57q0-6-2.7-9a9.7,9.7,0,0,0-7.63-3,10.23,10.23,0,0,0-7.8,3Q269,51,269,57V90.42H252Z"/><path class="cls-1" d="M318.45,33.09A5.49,5.49,0,1,1,313,27.84,5.32,5.32,0,0,1,318.45,33.09Zm-9.61,0A4.1,4.1,0,0,0,313,37.28a4.05,4.05,0,0,0,4.07-4.16,4.12,4.12,0,1,0-8.24,0ZM312,36.42h-1V31.17a8.71,8.71,0,0,1,1.85-.16,2.86,2.86,0,0,1,1.68.38,1.54,1.54,0,0,1,.47,1.15,1.31,1.31,0,0,1-1,1.22V34a1.49,1.49,0,0,1,.94,1.21,3.85,3.85,0,0,0,.37,1.25H314a4,4,0,0,1-.4-1.22c-.1-.54-.41-.78-1.07-.78H312Zm0-3h.59c.68,0,1.23-.23,1.23-.77s-.36-.8-1.14-.8a3.2,3.2,0,0,0-.68.06Z"/><text class="cls-2" transform="translate(0.16 114.56)">G<tspan class="cls-3" x="12.6" y="0">ene</tspan><tspan class="cls-4" x="43.29" y="0">r</tspan><tspan class="cls-3" x="49.97" y="0">ación y </tspan><tspan class="cls-5" x="114.02" y="0">U</tspan><tspan class="cls-3" x="126.44" y="0">so E</tspan><tspan class="cls-6" x="159.68" y="0">f</tspan><tspan class="cls-3" x="165.59" y="0">cie</tspan><tspan class="cls-7" x="189.55" y="0">n</tspan><tspan class="cls-8" x="200.36" y="0">t</tspan><tspan class="cls-3" x="207.1" y="0">e </tspan><tspan class="cls-9" x="221.71" y="0">D</tspan><tspan class="cls-3" x="234.66" y="0">e Ene</tspan><tspan class="cls-10" x="279.79" y="0">r</tspan><tspan class="cls-8" x="286.43" y="0">g</tspan><tspan class="cls-3" x="297.26" y="0">ía</tspan></text></g></g></svg>