<svg xmlns="http://www.w3.org/2000/svg" viewBox="0 0 421.36 120.74"><defs><style>.cls-1{fill:#fff;}</style></defs><title>LOGOFRecurso 12</title><g id="Capa_2" data-name="Capa 2"><g id="Capa_1-2" data-name="Capa 1"><path class="cls-1" d="M103.64,9.83c0,1-.58,1.52-1.62,1.29a3.23,3.23,0,0,0-2.25.24,2.08,2.08,0,0,0-1.37,2.12,2.41,2.41,0,0,0,1.78,2.11,2.21,2.21,0,0,0,2.46-.79,2.93,2.93,0,0,0,.69-2.09c0-1.09.7-1.5,1.77-1a1.75,1.75,0,0,0,2.69-1.35,7.6,7.6,0,0,0,.09-1.07c0-1.07.22-1.23,1.29-.88.21.07.41.16.61.24s.51.2.72,0,.09-.47,0-.7a6,6,0,0,0-1.71-2.2c-.36-.29-.75-.75-1.25-.48s-.28.82-.29,1.19c.13,1.41.13,1.41-1.2,1.32-1.92-.15-2.36.23-2.4,2.09"/><path class="cls-1" d="M102.87,22.33a4,4,0,0,0,1.27.21,2,2,0,0,0,1.21-.4l.12-.08.07,0a0,0,0,0,0,0,0,3,3,0,0,0,.23-.27,0,0,0,0,1,0,0,.78.78,0,0,0,.23-.21.85.85,0,0,0,.1-.28h0c0-.05,0-.1,0-.16a2.68,2.68,0,0,0,.12-.3,1.49,1.49,0,0,0,.12-.46c.19-1.79.21-1.72,2-1.66h.44c1.47,0,2.07-.65,1.92-2.07s-.15-1.43,1.3-1.33c.59,0,1.09-.05,1.11-.71a4.71,4.71,0,0,0-1-3.21.87.87,0,0,0-1-.34,1,1,0,0,0-.66.78,3.75,3.75,0,0,0,0,1.6c.16.9-.19,1.23-1.13,1.17-2.51-.15-2.51-.13-2.57,2.38,0,.14,0,.29,0,.42a.89.89,0,0,1-1,.86c-.44,0-.88,0-1.32,0A2.37,2.37,0,0,0,102,20.17a1.93,1.93,0,0,0-.15.4c-.27,1.58-.28,1.59-2,1.54a3.06,3.06,0,0,0-1.69.36,1.75,1.75,0,0,0-.94,1.8,1.62,1.62,0,0,0,1.39,1.33A2,2,0,0,0,101.17,24c.07-.18.14-.35.22-.51a2.72,2.72,0,0,1,.27-.44,2.66,2.66,0,0,1,.77-.72h.44"/><path class="cls-1" d="M112.54,19.14a1.37,1.37,0,0,0-1.61,1.12,10.55,10.55,0,0,0-.27,2A1.77,1.77,0,0,1,109.21,24c-2.16.42-2.68,1.08-2.58,3.25a2.05,2.05,0,0,1-1.94,1.12,1.85,1.85,0,0,0-1.31.47,1.21,1.21,0,0,0-.31,1.86,1.32,1.32,0,0,0,2,.11,2.08,2.08,0,0,0,.74-1.16,1.7,1.7,0,0,1,.53-1.05,2.34,2.34,0,0,1,1.37-.51,3.42,3.42,0,0,0,1.38-.39,1.73,1.73,0,0,0,.58-.56,1.93,1.93,0,0,0,.19-.38,3.48,3.48,0,0,0,.19-1,2.3,2.3,0,0,1,1.36-2.09,3.47,3.47,0,0,0,1.94-3c0-.64.08-1.39-.82-1.53"/><path class="cls-1" d="M96.83,16.23a2.13,2.13,0,0,0-2.13-1.06c-1.23.22-1.52,1.24-1.75,2.22-.36,1.59-.34,1.59-2,1.73-.86.06-1.49.44-1.58,1.34s.47,1.23,1.23,1.36c.93.17,1.32-.4,1.56-1.15.46-1.44.75-1.64,2.23-1.58a8,8,0,0,0,1.2,0c1.61-.25,2.19-1.55,1.27-2.85"/><path class="cls-1" d="M83.91,8.33c.94.06,1.36-.57,1.61-1.34a1.66,1.66,0,0,0,.06-.21c.11-1.1.73-1.52,1.86-1.44a2.12,2.12,0,0,0,2.43-1.57,4.71,4.71,0,0,1,.36-1,1,1,0,0,1,.26-.25,2.39,2.39,0,0,1,.43-.2,2.94,2.94,0,0,1,1.36-.15,4.9,4.9,0,0,0,1.43,0A1.23,1.23,0,0,0,94.84.91c0-.78-.67-.85-1.27-.9a3.53,3.53,0,0,0-1.52.2,3.64,3.64,0,0,0-1.82,1.62,1.7,1.7,0,0,1-1.11.54,3.39,3.39,0,0,1-.46,0c-1.46-.06-2.31.42-2.53,1.56a2,2,0,0,1-1.89,1.86,1.4,1.4,0,0,0-1.36,1.44,1.06,1.06,0,0,0,1,1.08"/><path class="cls-1" d="M91.13,12.6a3.61,3.61,0,0,0,.39-1.1c.29-1.46.34-1.5,1.85-1.43h.16L94,10a2,2,0,0,0,1.73-1,5.64,5.64,0,0,0,.46-.84c.3-.66-.08-1.6.74-2s1.49.17,2.24.25c1.15.13,1.43-.08,1.5-1.2,0-.4.1-.79.16-1.17.08-.63.4-.88,1.07-.64a8,8,0,0,0,1.48.39,1,1,0,0,0,1.16-.4,1,1,0,0,0-.3-1.25A5.41,5.41,0,0,0,102.08,1c-1-.31-1.31-.13-1.45.9s-.34,1.22-1.38.86c-1.57-.54-2.28-.16-2.6,1.38-.08.35-.15.71-.21,1.06C96.35,5.81,96,6,95.3,6c-2.77-.17-3.44.44-3.45,3.07a2.3,2.3,0,0,1-1.8.88,2.91,2.91,0,0,0-1.06.27,1.71,1.71,0,0,0-1.12,2,1.48,1.48,0,0,0,1.27,1.42,1.83,1.83,0,0,0,2-1"/><path class="cls-1" d="M87.26,15.38a1.46,1.46,0,0,0-1.46-1.55,1.47,1.47,0,1,0-.07,2.93,1.47,1.47,0,0,0,1.53-1.38"/><path class="cls-1" d="M94.77,25.37a1.49,1.49,0,0,0-1.44,1.48,1.47,1.47,0,0,0,1.55,1.47,1.5,1.5,0,0,0,1.45-1.57,1.55,1.55,0,0,0-1.56-1.38"/><path class="cls-1" d="M87.26,22.33a1,1,0,0,0-1.14,1.06,1.07,1.07,0,0,0,1.09,1.17c.82,0,1.2-.48,1.18-1.18a1,1,0,0,0-1.13-1.05"/><path class="cls-1" d="M91.64,27.92c-.52.13-.91.41-.86,1a.89.89,0,0,0,.94.86.9.9,0,0,0,1-.95c0-.58-.41-.86-1-.92"/><path class="cls-1" d="M100.65,31.08a.89.89,0,0,0-.89,1,.84.84,0,0,0,.92.85.86.86,0,0,0,1-.92c0-.58-.39-.87-1-.91"/><path class="cls-1" d="M84.15,17.51a.94.94,0,0,0-1.88,0c0,.6.37.9,1,.93s.92-.39.9-1"/><path class="cls-1" d="M84.09,24.51a.82.82,0,0,0-.94.83.9.9,0,1,0,.94-.83"/><path class="cls-1" d="M82.64,9.45a.8.8,0,0,0-1.59.07c0,.49.3.78.89.8.43-.1.76-.35.7-.87"/><path class="cls-1" d="M81.88,26.72a.55.55,0,1,0,.1,1.1.57.57,0,0,0,.5-.57c-.07-.34-.27-.55-.6-.53"/><polygon class="cls-1" points="0 17.07 23 17.07 23 99.07 75 99.07 75 119.07 0 119.07 0 17.07"/><rect class="cls-1" x="86" y="40.07" width="23" height="79"/><path class="cls-1" d="M119,40.07h23V56.19a32.06,32.06,0,0,1,9.21-12.61q5.85-4.72,15.79-4.3V62.07h-1.17q-11.12,0-17.46,6.59T142,89.14v29.93H119Z"/><polygon class="cls-1" points="171.81 40.07 195.78 40.07 213.65 92.59 231.65 40.07 255.18 40.07 223.77 119.07 203.22 119.07 171.81 40.07"/><path class="cls-1" d="M277.35,120.74a35.94,35.94,0,0,1-10.63-1.53,25,25,0,0,1-8.69-4.59,22,22,0,0,1-5.87-7.54A23.24,23.24,0,0,1,250,96.78V96.6a24.57,24.57,0,0,1,2.4-11.2,21.48,21.48,0,0,1,6.67-7.8A30,30,0,0,1,269.26,73a51.88,51.88,0,0,1,13.11-1.54,58,58,0,0,1,10.72.87A66.73,66.73,0,0,1,302,74.66v-1q0-7.11-4.36-10.8t-12.95-3.7A54.06,54.06,0,0,0,273,60.24a77.9,77.9,0,0,0-10.61,3.18l-5.74-17.17a92.67,92.67,0,0,1,13.86-4.6A74.44,74.44,0,0,1,288,39.88a50.19,50.19,0,0,1,16.19,2.3,28.73,28.73,0,0,1,11.08,6.58,26.9,26.9,0,0,1,6.64,10.88A46.8,46.8,0,0,1,324,74.09v45H302v-8.26A31.1,31.1,0,0,1,292,118a33.19,33.19,0,0,1-14.11,2.7m6.4-15.34c5.34,0,9.63-1.26,12.84-3.8A12,12,0,0,0,302,91.68V87.74a34.87,34.87,0,0,0-6.61-2.12,35.84,35.84,0,0,0-7.8-.81q-7.27,0-11.43,2.78a9,9,0,0,0-4.16,8v.28a8.15,8.15,0,0,0,3.41,7,14.77,14.77,0,0,0,8.92,2.48"/><path class="cls-1" d="M333,40.07h23V51.26a48.32,48.32,0,0,1,4.2-4.79,29.56,29.56,0,0,1,5.09-4,25.25,25.25,0,0,1,6.19-2.79,26,26,0,0,1,7.68-1Q392,38.6,399,46.35t7,21.34v51.38H384V74.84c0-5.24-1.2-9.21-3.6-11.88s-5.79-4-10.18-4-7.86,1.34-10.4,4S356,69.6,356,74.84v44.23H333Z"/><path class="cls-1" d="M421.36,43.75a7.26,7.26,0,1,1-7.23-6.93A7,7,0,0,1,421.36,43.75Zm-12.7,0a5.43,5.43,0,0,0,5.51,5.55,5.36,5.36,0,0,0,5.38-5.5,5.45,5.45,0,1,0-10.89,0ZM413,47.07h-1V40.13a11.9,11.9,0,0,1,2.47-.21,3.75,3.75,0,0,1,2.24.51,2,2,0,0,1,.62,1.52A1.75,1.75,0,0,1,416,43.56v-.17a2.21,2.21,0,0,1,1.41,1.81,5.43,5.43,0,0,0,.56,1.87h-1.92a6,6,0,0,1-.61-1.82c-.14-.82-.61-1.18-1.6-1.18H413Zm0-4h.77c.91,0,1.64-.3,1.64-1S414.94,41,413.9,41a4,4,0,0,0-.9.09Z"/></g></g></svg>